<svg id="visual" viewBox="0 0 1366 600" width="1366" height="600" xmlns="http://www.w3.org/2000/svg" xmlns:xlink="http://www.w3.org/1999/xlink" version="1.1"><rect x="0" y="0" width="1366" height="600" fill="#002"></rect><path d="M0 487L32.5 468.3C65 449.7 130 412.3 195 395C260 377.7 325 380.3 390 399.8C455 419.3 520 455.7 585.2 468.3C650.3 481 715.7 470 780.8 462C846 454 911 449 976 456.8C1041 464.7 1106 485.3 1171 488.5C1236 491.7 1301 477.3 1333.5 470.2L1366 463L1366 601L1333.5 601C1301 601 1236 601 1171 601C1106 601 1041 601 976 601C911 601 846 601 780.8 601C715.7 601 650.3 601 585.2 601C520 601 455 601 390 601C325 601 260 601 195 601C130 601 65 601 32.5 601L0 601Z" fill="#0066FF" stroke-linecap="round" stroke-linejoin="miter"></path></svg>